# xmcd
#
# Track frame offsets:
#	150
#	24703
#	40308
#	52334
#	66943
#	84181
#	98128
#	111380
#	122584
#	140458
#	155506
#	170269
#	183143
#	198076
#	214775
#	227800
#	243454
#	261701
#	280963
#	297969
#	316328
#	330869
#	342952
#
# Disc length: 4751 seconds
#
# Revision: 0
# Processed by: cddbd v1.4PL0 Copyright (c) Steve Scherf et al.
# Submitted via: dBpowerAMP V4.0
#
DISCID=56128d17
DTITLE=Alejandro Fernandez - .-.Éxitos.-.-.
DYEAR=2002
DGENRE=Ranchera
TTITLE0=Intro
TTITLE1=Tantita Pena
TTITLE2=Te quedas o te vas
TTITLE3=Si tu no vuelves
TTITLE4=Cenizas
TTITLE5=Amor de luna
TTITLE6=Y después
TTITLE7=Ahí amor
TTITLE8=Enséñame
TTITLE9=Como pez al agua
TTITLE10=Dentro de mi corazón
TTITLE11=Dónde vas tan sola
TTITLE12=Mentirosos
TTITLE13=Jamás te ví tan sola
TTITLE14=Intenta vivir sin mí
TTITLE15=Duerme tranquila
TTITLE16=Si tú supieras
TTITLE17=El monstruo
TTITLE18=Cómo puede ser
TTITLE19=Nube Viajera
TTITLE20=Ingrato Amor
TTITLE21=Piel de Niña
TTITLE22=Me recordarás llorando
EXTD=.-.JULES.-.-.-.-.-.-.-\n	
EXTT0=
EXTT1=
EXTT2=
EXTT3=
EXTT4=
EXTT5=
EXTT6=
EXTT7=
EXTT8=
EXTT9=
EXTT10=
EXTT11=
EXTT12=
EXTT13=
EXTT14=
EXTT15=
EXTT16=
EXTT17=
EXTT18=
EXTT19=
EXTT20=
EXTT21=
EXTT22=
PLAYORDER=
